<?xml version="1.0" encoding="UTF-8"?>
<svg id="Layer_1" xmlns="http://www.w3.org/2000/svg" version="1.1" viewBox="0 0 277.1 313.3">
  <!-- Generator: Adobe Illustrator 30.2.1, SVG Export Plug-In . SVG Version: 2.1.1 Build 1)  -->
  <defs>
    <style>
      .st0 {
        fill: #315c2b;
      }

      .st1 {
        fill: #5a189a;
      }

      .st2 {
        fill: #005f73;
      }

      .st3 {
        fill: #ee9b00;
      }

      .st4 {
        fill: #fff;
      }

      .st5 {
        fill: #1c1c1c;
      }

      .st6 {
        fill: #bb3e03;
      }

      .st7 {
        fill: #274029;
      }

      .st8 {
        fill: #9b2226;
      }

      .st9 {
        fill: #ae2012;
      }

      .st10 {
        fill: #94d2bd;
      }

      .st11 {
        fill: #9d4edd;
      }

      .st12 {
        fill: #7b2cbf;
      }

      .st13 {
        fill: #ca6702;
      }

      .st14 {
        fill: #3c096c;
      }

      .st15 {
        fill: #0a9396;
      }
    </style>
  </defs>
  <polygon class="st4" points="0 232.6 0 80 138.6 0 277.1 80 277.1 232.6 138.6 312.6 0 232.6"/>
  <polygon class="st5" points="23.1 93.3 138.6 26.7 254.1 93.4 254.1 219.3 138.6 285.9 23.1 219.3 23.1 93.3"/>
  <rect class="st2" x="-97.5" y="358.8" width="19.1" height="19.1" rx="-29.6" ry="-29.6"/>
  <rect class="st15" x="337.6" y="351.3" width="19.1" height="19.1" rx="5.5" ry="5.5"/>
  <rect class="st10" x="-52.4" y="358.8" width="19.1" height="19.1" rx="-7.1" ry="-7.1"/>
  <rect class="st8" x="75.5" y="358.8" width="19.1" height="19.1" rx="5.5" ry="5.5"/>
  <rect class="st7" x="-27.7" y="358.8" width="19.1" height="19.1" rx="5.3" ry="5.3"/>
  <rect class="st0" x="421.6" y="351.3" width="19.1" height="19.1" rx="5.5" ry="5.5"/>
  <rect class="st11" x="102.7" y="358.8" width="19.1" height="19.1" rx="5.5" ry="5.5"/>
  <rect class="st12" x="128.7" y="358.8" width="19.1" height="19.1" rx="5.5" ry="5.5"/>
  <rect class="st1" x="154.7" y="358.8" width="19.1" height="19.1" rx="5.5" ry="5.5"/>
  <rect class="st14" x="182" y="358.8" width="19.1" height="19.1" rx="5.5" ry="5.5"/>
  <rect class="st3" x="129.9" y="319.4" width="19.1" height="19.1" rx="5.5" ry="5.5"/>
  <rect class="st13" x="21.7" y="358.8" width="19.1" height="19.1" rx="5.5" ry="5.5"/>
  <rect class="st6" x="47.9" y="358.8" width="19.1" height="19.1" rx="5.5" ry="5.5"/>
  <rect class="st9" x="270.5" y="351.3" width="19.1" height="19.1" rx="5.5" ry="5.5"/>
  <polygon class="st3" points="47.5 104.1 138.6 51.5 229.7 104.1 229.7 203.4 138.6 256 47.5 203.4 47.5 104.1"/>
  <g>
    <path class="st5" d="M193.4,148.5c1.5.7,2.8,1.7,3.8,3.1,1.8,2.6,1.7,6.2.3,9.1-1.2,2.6-3.4,4.7-5.8,6.3,1.5.7,2.8,1.7,3.8,3.1,1.8,2.6,1.7,6.2.3,9.1-1.2,2.5-3.2,4.5-5.5,6.1,1.5.6,2.8,1.5,3.7,2.9,1.5,2.2,1.4,5.2.3,7.7-2.5,5.8-10.6,10.9-28.7,10.9h-29.4c-6.5,0-13.6-2.4-19.3-7s-3.9-5-3.9-8.1v-50.1c0-2.9,1.3-5.7,3.4-7.7,6.6-6.2,11.3-16.2,13.8-24.5,3.6-11.8-3.2-23.6,6.8-26,9.9-2.3,14.8,6.3,16.6,11.6,4.2,12.1,3,25.9-3.1,37.1,14.5-3.1,22.2-3.8,35.8-3.8s9.9.9,12.5,4.8c1.8,2.6,1.7,6.2.3,9.1-1.2,2.6-3.4,4.7-5.8,6.3Z"/>
    <rect class="st5" x="76.9" y="134" width="30.7" height="67.6" rx="14.1" ry="14.1"/>
  </g>
</svg>